<svg width="33" height="42" viewBox="0 0 33 42" fill="none" xmlns="http://www.w3.org/2000/svg">
<path d="M15.7929 9.5957V9.59675C15.776 9.62583 12.2955 15.6297 7.95067 22.96C3.59532 30.3081 0 36.1911 0 36.1911L12.3315 36.137L12.3323 36.1369L12.3297 36.1464C18.3172 36.0304 23.7182 32.0939 25.3119 26.1458C25.8102 24.2864 25.8853 22.4147 25.5964 20.626C24.8043 15.3587 20.9149 11.075 15.7929 9.5957Z" fill="black"/>
<path d="M22.6078 5.80957V5.81061C22.591 5.83969 19.1104 11.8435 14.7656 19.1739C10.4103 26.522 6.81494 32.4049 6.81494 32.4049L19.1464 32.3509L19.1472 32.3507L19.1446 32.3603C25.1321 32.2443 30.5331 28.3078 32.1269 22.3597C32.6251 20.5003 32.7003 18.6286 32.4113 16.8398C31.6192 11.5726 27.7299 7.28883 22.6078 5.80957Z" fill="#10F2C5"/>
</svg>
